<svg xmlns="http://www.w3.org/2000/svg" preserveAspectRatio="xMidYMid" width="48" height="424" viewBox="-2.499 2.165 48 424"><defs><style>.cls-2 { fill: #5bbc2e; }</style></defs><g id="Layer_1"><path id="path-1" class="cls-2" d="M39.97 48.676H3.038C1.362 48.676 0 47.272 0 45.546V18.968c0-1.725 1.362-3.13 3.037-3.13h9.94V11.78c0-1.723 1.363-3.127 3.038-3.127h10.97c1.675 0 3.038 1.404 3.038 3.127v4.06h9.947c1.67 0 3.03 1.403 3.03 3.128v26.578c0 1.725-1.36 3.13-3.03 3.13zM28.134 11.78c0-.65-.515-1.18-1.148-1.18h-10.97c-.633 0-1.148.53-1.148 1.18v4.06h13.266v-4.06zm12.978 7.188c0-.65-.51-1.18-1.14-1.18H3.037c-.633 0-1.148.53-1.148 1.18v9.616h15.52c.203 0 .38.08.534.193v-1.912c0-.54.423-.975.945-.975h5.226c.52 0 .945.436.945.975v1.72h15.563c.183 0 .343.065.487.16v-9.777zm-21.275 8.87v6.135h3.337V27.84h-3.337zm21.276 2.536c-.144.092-.304.16-.486.16H25.062v4.412c0 .538-.424.975-.945.975H18.89c-.522 0-.945-.435-.945-.973V30.34c-.154.113-.33.193-.535.193H1.89v15.013c0 .65.514 1.18 1.147 1.18H39.97c.63 0 1.142-.528 1.142-1.18V30.374z"/><path id="path-1_1_" class="cls-2" d="M3.005 101.664v-4.37c0-2.718 1.548-5.15 4.07-6.056l8.927-3.38v-3.75c-3-2.06-4.994-5.968-4.994-10.448 0-6.613 4.595-11.994 10.153-11.994S31.43 67.046 31.43 73.66c0 4.22-2.428 7.926-4.428 10.064v4.137l8.868 3.383c2.553.914 4.128 3.35 4.128 6.053v4.37H3.006zm18.23-38.45c-4.07 0-7.48 3.507-8.33 8.18.862.376 1.73.558 2.746.558 2.49 0 5.446-1.492 6.33-3.193l.652-1.258.7 1.23c1.63 2.87 3.354 3.78 6.137 3.232.063-.012.12-.008.18-.016-.67-4.948-4.183-8.735-8.413-8.735zm8.54 10.645c0-.06-.01.02-.01.02h-.01c-.59 0-1.15-.024-1.685-.024-2.23 0-3.973-1.113-5.45-3.252-1.53 1.72-4.377 2.943-6.97 2.943-1.056 0-2.007-.19-2.926-.527-.012.222-.028.43-.028.653 0 5.76 3.832 10.54 8.54 10.54 4.706.002 8.538-4.592 8.538-10.354zm8.223 23.434c0-2.02-1.195-3.91-3.117-4.598L25 88.932V84.71c-1 .608-2.372.946-3.764.946-1.19 0-2.234-.26-3.234-.715v3.994l-9.94 3.76c-1.92.688-3.057 2.54-3.057 4.602v2.385H38v-2.384z"/><path id="path-1_2_" class="cls-2" d="M30.45 132.678v1.86h1.184c3.103 0 5.354 2.28 5.354 5.423 0 3.145-2.252 5.425-5.354 5.425H30.45v5.17c0 2.337-1.738 4.1-4.047 4.1H12.02c-2.268 0-4.046-1.8-4.046-4.1V132.68c0-.435.348-.787.78-.787H8.8l-2.05-4.155c-.022-.043-.03-.092-.042-.137-.01-.03-.023-.06-.028-.093 0-.008-.006-.016-.007-.025l-.654-5.298c-.038-.295.094-.588.34-.754.247-.164.563-.175.817-.027l4.576 2.648.013.016c.095.058.182.133.248.232.012.018.013.04.024.06.005.01.018.015.024.025l3.706 7.51h.05v-16.427c0-.436.347-.788.777-.788h7.845c.43 0 .777.353.777.788V130.7l3.374-6.205c-.3-.306-.542-.653-.7-1.04-.346-.833-.324-1.796.06-2.714.2-.477.532-.902.884-1.352.94-1.205 1.476-2.013.586-3.385-.174-.27-.17-.622.014-.887.186-.266.508-.39.82-.312 3.707.91 5.053 4.248 4.732 6.965-.252 2.124-1.47 3.603-3.09 3.855l-2.347 6.267h.12c.43 0 .776.353.776.788zm0 11.13h1.184c2.236 0 3.798-1.58 3.798-3.847 0-2.263-1.562-3.844-3.798-3.844H30.45v7.694zM7.757 123.552l.304 2.468 1.83-1.233-2.13-1.234zm3.308 2.334l-2.616 1.77 2.09 4.237h3.49l-2.966-6.006zm9.456-1.94h3.147v-1.07H21.83c-.43 0-.78-.355-.78-.79s.35-.788.78-.788h1.836v-1.07H20.52c-.43 0-.778-.354-.778-.79 0-.436.348-.79.78-.79h3.144v-2.395h-6.29v15.64h6.29v-2.395H21.83c-.43 0-.78-.354-.78-.79s.35-.787.78-.787h1.836v-2.395H20.52c-.43 0-.778-.354-.778-.79s.347-.788.78-.788zm3.923 9.522H9.53v17.09c0 1.413 1.094 2.52 2.49 2.52h14.383c1.443 0 2.49-1.06 2.49-2.52v-17.09h-4.45zm6.963-9.366c1.285 0 1.9-1.356 2.037-2.518.19-1.617-.396-3.523-2.02-4.59.14 1.45-.73 2.56-1.365 3.373-.285.365-.555.707-.672.99-.22.53-.24 1.047-.057 1.49.183.446.562.803 1.1 1.03.345.15.675.225.976.225zm-1.117 1.377c-.128-.04-.256-.068-.385-.12l-3.55 6.533h1.533l2.4-6.413z"/><path id="path-1_3_" class="cls-2" d="M40.145 207.662H2.855c-.47 0-.852-.392-.852-.875v-38.244c0-.483.38-.875.853-.875s.854.392.854.875v37.367h36.434c.47 0 .852.392.852.877 0 .484-.38.875-.85.875zm-.5-6.217h-6.3c-.473 0-.854-.392-.854-.876V168.54c0-.483.383-.875.856-.875h6.3c.474 0 .855.392.855.875v32.026c0 .484-.38.875-.853.875zm-.852-32.025H34.2v30.273h4.593V169.42zm-11.316 32.025h-6.302c-.472 0-.854-.392-.854-.876v-20.29c0-.485.384-.878.856-.878h6.302c.47 0 .854.393.854.876v20.29c0 .484-.383.875-.853.875zm-.856-20.29h-4.59v18.538h4.59v-18.538zm-11.314 20.29h-6.3c-.47 0-.853-.392-.853-.876v-9.053c0-.483.382-.875.854-.875h6.297c.472 0 .854.392.854.875v9.05c0 .486-.382.877-.853.877zm-.854-9.05H9.86v7.3h4.59v-7.3z"/><path id="path-1_4_" class="cls-2" d="M33.174 260.66H9.826c-.46 0-.834-.39-.834-.87v-38.25c0-.48.373-.87.834-.87h23.348c.46 0 .834.39.834.87v38.25c0 .48-.373.87-.834.87zm-.834-38.25H10.66v36.51h21.68v-36.51zm-19.178 4.057H29.84c.46 0 .832.39.832.87v22.02c0 .48-.373.87-.833.87H13.16c-.46 0-.834-.39-.834-.87v-22.02c0-.48.373-.87.834-.87zm.833 22.02h15.01v-20.28h-15.01v20.28zm7.505 3.553c1.09 0 1.98.925 1.98 2.064 0 1.14-.89 2.064-1.98 2.064-1.094 0-1.98-.926-1.98-2.064 0-1.14.886-2.064 1.98-2.064z"/><path id="path-1_5_" class="cls-2" d="M37.885 303.976c-.135 1.46-1.107 6.554-7.908 7.366-.47 1.352-1.703 2.32-3.16 2.32-1.865 0-3.375-1.574-3.375-3.516s1.51-3.518 3.375-3.518c1.516 0 2.785 1.05 3.21 2.486 5.74-.834 5.767-5.306 5.765-5.504-.002-.133.027-.258.066-.377-.03-.105-.062-.213-.062-.328V290.77c0-8.214-6.412-14.895-14.292-14.895S7.21 282.555 7.21 290.77v12.137c0 .61-.472 1.104-1.057 1.104-.063 0-.117-.025-.176-.035-.06.01-.114.037-.176.037-4.572 0-8.294-3.628-8.294-8.09 0-4.313 3.482-7.84 7.846-8.07 1.338-8.04 8.063-14.18 16.154-14.18 8.09 0 14.816 6.14 16.152 14.18 4.363.23 7.844 3.757 7.844 8.07-.002 4.236-3.36 7.717-7.615 8.056zm-11.07 4.86c-.69 0-1.257.59-1.257 1.31 0 .722.566 1.31 1.258 1.31.693 0 1.258-.588 1.258-1.31 0-.72-.564-1.31-1.258-1.31zM-.378 295.92c0 3.013 2.4 5.477 5.473 5.814V290.77c0-.227.024-.447.032-.673-3.087.325-5.504 2.796-5.504 5.823zm38.26-5.823c.01.226.032.446.032.673v10.965c3.068-.34 5.47-2.802 5.47-5.814 0-3.025-2.42-5.496-5.5-5.822z"/><path id="path-1_6_" class="cls-2" d="M40.61 366.654H2.39c-.486 0-.878-.393-.878-.88v-38.222c0-.486.392-.878.878-.878h38.224c.486 0 .88.392.88.878v38.223c-.002.487-.394.88-.88.88zm-.876-38.224H3.266v8.48h36.47v-8.48zm0 10.234H3.266v26.234h36.47v-26.234zm-29.387 4.797c.343-.34.9-.34 1.24 0l6.37 6.377c.343.344.343.898 0 1.242l-6.37 6.367c-.17.172-.395.258-.62.258-.224 0-.448-.086-.62-.258-.343-.343-.343-.898 0-1.24l5.748-5.75-5.748-5.753c-.344-.344-.344-.898 0-1.242zm10.496 12.49h11.194c.484 0 .88.39.88.877 0 .484-.396.878-.88.878H20.843c-.485 0-.878-.394-.878-.878 0-.486.393-.878.878-.878zM7.53 330.73c1.07 0 1.938.867 1.938 1.937s-.867 1.936-1.937 1.936-1.936-.868-1.936-1.938c0-1.07.868-1.938 1.938-1.938zm5.578 0c1.07 0 1.938.867 1.938 1.937s-.868 1.936-1.938 1.936c-1.07 0-1.937-.868-1.937-1.938 0-1.07.87-1.938 1.94-1.938zm5.58 0c1.07 0 1.94.867 1.94 1.937s-.87 1.936-1.94 1.936c-1.07 0-1.94-.868-1.94-1.938 0-1.07.87-1.938 1.94-1.938z"/><path id="path-1_7_" class="cls-2" d="M41.068 419.37h-20.61c-.508 0-.92-.423-.92-.944s.412-.943.92-.943h20.61c.51 0 .922.422.922.943s-.412.943-.922.943zm-29.113-.537c-.16.164-.372.263-.6.274l-9.365.563c-.018.002-.036.002-.054.002-.245 0-.48-.1-.653-.276-.186-.19-.284-.452-.268-.72l.553-9.58c.013-.232.11-.45.268-.614l27.93-28.55c.174-.177.406-.275.652-.275s.48.1.654.276l8.812 9.01c.174.178.27.418.27.668 0 .253-.097.49-.27.67l-27.93 28.554zm-8.566-9.27l-.26 4.49c1.902.076 3.27 1.5 3.31 3.46l4.457-.27 22.503-23-3.102-3.17-21.292 21.764c-.18.185-.417.277-.653.277s-.472-.093-.652-.277c-.36-.368-.36-.965 0-1.333l21.294-21.765-3.105-3.176-22.5 23zm27.027-27.63l-3.225 3.298 7.51 7.68 3.225-3.297-7.51-7.678z"/></g></svg>